# xmcd CD database file
#
# Track frame offsets:
#	150
#	16329
#	33532
#	49783
#	63167
#	76616
#	91730
#	105673
#	120213
#	137538
#	152874
#	171203
#
# Disc length: 2490 seconds
#
# Revision: 7
# Processed by: cddbd v1.5.2PL0 Copyright (c) Steve Scherf et al.
# Submitted via: CDex 1.51
#
DISCID=8409b80c
DTITLE=Toby Keith - Honkytonk University
DYEAR=2005
DGENRE=Country
TTITLE0=Honkytonk U
TTITLE1=As Good As I Once Was
TTITLE2=She Ain't Hooked On Me No More
TTITLE3=Big Blue Note
TTITLE4=Just The Guy To Do It
TTITLE5=She Left Me
TTITLE6=Knock Yourself Out
TTITLE7=You Ain't Leavin' (Thank God Are Ya)
TTITLE8=I Got It Bad
TTITLE9=Your Smile
TTITLE10=Where You Gonna Go
TTITLE11=You Caught Me At A Bad Time
EXTD=YEAR: 2005
EXTT0=
EXTT1=
EXTT2=
EXTT3=
EXTT4=
EXTT5=
EXTT6=
EXTT7=
EXTT8=
EXTT9=
EXTT10=
EXTT11=
PLAYORDER=
